<?xml version="1.0" encoding="utf-8"?>
<!-- Svg Vector Icons : http://www.onlinewebfonts.com/icon -->
<!DOCTYPE svg PUBLIC "-//W3C//DTD SVG 1.1//EN" "http://www.w3.org/Graphics/SVG/1.1/DTD/svg11.dtd">
<svg version="1.1" xmlns="http://www.w3.org/2000/svg" xmlns:xlink="http://www.w3.org/1999/xlink" x="0px" y="0px" viewBox="0 0 1000 1000" enable-background="new 0 0 1000 1000" xml:space="preserve">
<metadata> Svg Vector Icons : http://www.onlinewebfonts.com/icon </metadata>
<g><g><g><path d="M815.5,158.9c-0.8-10.5-7.1-20-16.2-27.1c-42.8-33.1-84.2-67.9-124.2-104.2c-10.1-16.5-33.6-25.7-51.6-8C480.3,160.4,354.9,319,197.8,445.3c-4.3,3.5-7.2,7.3-9,11.2c-9,11.8-11.3,28.9,1.7,42.9C337,657.6,473.2,825.2,623.5,980.1c10.2,10.5,22.3,11.8,32.7,7.8c6-0.8,12-3.2,17.6-7.8c44.5-37.3,87.3-76.5,128.4-117.4c17.7-17.6,8.9-40.9-7.4-51.1c-86.1-102.4-184.3-203.8-270.3-306.3c97.5-97.9,191.5-208.9,285-310.5C820.1,183.3,820.5,169.9,815.5,158.9z M465.7,471c-5,4.9-7.7,10.2-9,15.6c-8,11.8-9.9,28.3,1.7,42.1c86.8,104,186.3,206.7,273.6,310.3c-26.4,25.4-53.5,49.9-81.2,73.9C516.2,772.2,392.1,622.2,260.8,478.5C401.6,361.8,517.7,219.9,646.2,90.2c31.4,27.7,63.6,54.4,96.5,80.3C653.4,270.3,561.4,377.2,465.7,471z"/></g></g><g></g><g></g><g></g><g></g><g></g><g></g><g></g><g></g><g></g><g></g><g></g><g></g><g></g><g></g><g></g></g>
</svg>